<svg width="10" height="10" viewBox="0 0 10 10" fill="none" xmlns="http://www.w3.org/2000/svg">
<g id="Icon" clip-path="url(#clip0_162_3682)">
<path id="Vector" d="M5 7.83008L0.693359 3.52344C0.564453 3.39453 0.5 3.24365 0.5 3.0708C0.5 2.89795 0.564453 2.74707 0.693359 2.61816C0.822266 2.48926 0.97168 2.4248 1.1416 2.4248C1.31152 2.4248 1.46094 2.48926 1.58984 2.61816L5 6.02832L8.41016 2.61816C8.53906 2.48926 8.68848 2.4248 8.8584 2.4248C9.02832 2.4248 9.17773 2.48926 9.30664 2.61816C9.43555 2.74707 9.5 2.89795 9.5 3.0708C9.5 3.24365 9.43555 3.39453 9.30664 3.52344L5 7.83008Z" fill="#03A776"/>
</g>
<defs>
<clipPath id="clip0_162_3682">
<rect width="9" height="9" fill="white" transform="matrix(1 0 0 -1 0.5 9.5)"/>
</clipPath>
</defs>
</svg>
